<?xml version="1.0" encoding="UTF-8" standalone="no"?>
<svg
   height="167"
   width="549.38"
   version="1.1"
   viewBox="0 0 549.38001 167"
   id="svg828"
   xmlns="http://www.w3.org/2000/svg"
   xmlns:svg="http://www.w3.org/2000/svg">
  <defs
     id="defs832" />
  <path
     fill="#4d4d4d"
     d="m 179.53,51.949 c -8.07,-0.013 -14.77,1.642 -17.36,2.545 l -2.67,14.401 c 0,0.053 13.28,-3.542 19.13,-3.33 9.68,0.348 10.58,3.702 10.41,8.229 0.16,0.265 -2.5,-4.091 -10.88,-4.237 -10.58,-0.182 -25.49,3.743 -25.47,19.701 -0.29,17.952 13.4,23.232 22.73,23.322 8.38,-0.15 12.32,-3.17 14.47,-4.79 2.83,-2.96 6.07,-5.93 9.15,-9.502 -2.92,5.312 -5.45,8.982 -8.09,11.782 v 2.38 l 12.75,-2.15 0.09,-34.641 C 203.66,70.756 206.6,51.994 179.53,51.948 Z M 177.7,82.11 c 5.29,0.072 11.35,2.676 11.35,8.944 0.03,5.7 -7.14,8.765 -11.8,8.717 -4.66,-0.049 -10.85,-3.666 -10.88,-9.223 0.09,-4.968 5.84,-8.566 11.33,-8.438 z m 34.49,-26.959 -0.09,57.369 14.85,-2.86 0.02,-32.527 c 0.01,-4.843 6.93,-10.503 15.6,-10.412 1.85,-3.333 5.31,-11.851 6.15,-13.789 -19.39,-0.046 -19.63,5.574 -23.01,8.338 -0.03,-5.274 -0.01,-8.439 -0.01,-8.439 l -13.51,2.322 z m 83.55,7.532 c -0.14,-0.068 -7.74,-8.89 -23.02,-8.959 -14.31,-0.238 -30.36,5.31 -30.62,29.308 0.13,21.098 15.42,29.348 30.7,29.508 16.36,0.17 22.86,-10.23 23.25,-10.49 -1.95,-1.69 -9.26,-8.931 -9.26,-8.931 0,0 -4.56,6.501 -13.42,6.583 -8.86,0.084 -16.56,-6.847 -16.67,-16.519 -0.11,-9.671 7.08,-14.911 16.74,-15.335 8.36,-0.001 13.18,5.397 13.18,5.397 z m 18.72,-27.611 -14.02,3.295 0.1,74.723 13.81,-2.49 0.16,-35.166 c 0.03,-3.687 5.33,-9.349 14.19,-9.17 8.47,0.088 10.36,5.644 10.34,6.346 l 0.24,40.71 13.62,-2.41 0.05,-43.164 c 0.09,-4.154 -9.1,-12.927 -23.87,-12.989 -7.01,0.012 -10.9,1.6 -12.88,2.772 -3.38,2.614 -7.25,5.119 -11.05,8.316 3.51,-4.514 6.46,-7.634 9.34,-9.955 l -0.03,-20.816 z"
     id="path824" />
  <path
     fill="#1793d1"
     d="m 364.76,37.017 6.38,-1.583 -0.77,75.336 -6.48,1.09 z m 16.97,22.482 5.61,-2.467 -0.72,54.018 -5.4,1.11 z m -1.05,-19.478 4.55,-3.647 3.67,4.129 -4.55,3.744 z m 17.12,18.495 6.38,-1.29 -0.13,11.293 c -0.01,0.485 3.67,-12.616 20.51,-12.324 16.36,0.09 18.86,12.675 18.73,15.496 l -0.37,39.709 -5.59,1.2 0.53,-39.219 c 0.08,-1.146 -2.4,-10.832 -13.96,-10.868 -11.55,-0.034 -19.68,8.342 -19.74,13.693 l -0.4,34.554 -6.48,1.68 0.52,-53.925 z m 100.63,53.164 -6.38,1.29 0.13,-11.29 c 0.01,-0.48 -3.67,12.62 -20.51,12.33 -16.36,-0.1 -18.85,-12.68 -18.73,-15.502 l 0.37,-39.711 6.78,-1.356 -0.46,39.224 c -0.01,1.072 1.14,10.985 12.7,11.025 11.55,0.03 19.75,-6.92 19.95,-17.385 l 0.36,-30.948 6.32,-1.596 z m 13.23,-53.61 -4.51,3.47 16.78,22.245 -18.6,25.705 4.68,3.49 17.49,-23.872 17.35,24.432 4.43,-3.47 -18.6,-26.122 15.43,-21.126 -4.59,-3.911 -14.07,19.549 z M 83.81,0.625 C 76.413,18.759 71.952,30.622 63.717,48.218 68.766,53.57 74.963,59.802 85.028,66.842 74.208,62.389 66.828,57.918 61.311,53.28 50.772,75.272 34.259,106.6 0.75,166.81 c 26.338,-15.2 46.753,-24.58 65.78,-28.15 -0.817,-3.52 -1.281,-7.32 -1.25,-11.28 l 0.031,-0.85 c 0.418,-16.87 9.195,-29.845 19.593,-28.964 10.398,0.881 18.478,15.284 18.058,32.154 -0.07,3.18 -0.43,6.23 -1.06,9.06 18.82,3.68 39.02,13.03 65,28.03 -5.12,-9.43 -9.7,-17.93 -14.06,-26.03 -6.88,-5.33 -14.05,-12.27 -28.69,-19.78 10.06,2.62 17.26,5.63 22.88,9 C 102.632,47.332 99.039,36.349 83.809,0.63 L 83.81,0.62481 Z"
     id="path826" />
</svg>
